<?xml version="1.0" encoding="utf-8"?>
<!-- Generator: Adobe Illustrator 24.1.0, SVG Export Plug-In . SVG Version: 6.00 Build 0)  -->
<svg version="1.1" id="Layer_1" xmlns="http://www.w3.org/2000/svg" xmlns:xlink="http://www.w3.org/1999/xlink" x="0px" y="0px"
	 viewBox="0 0 158.4 111.4" style="enable-background:new 0 0 158.4 111.4;" xml:space="preserve">
<style type="text/css">
	.st0{fill:#F7F7F7;}
</style>
<g>
	<path class="st0" d="M157.3,0l-44.8,36c7.2,7.9,11.5,16,13.2,28.9l9.9-8.8c4.7-3.8,6.7-8.5,5.9-14c4.4-3.7,6.2-8.3,5.4-13.6
		c4.4-3.7,6.2-8.3,5.4-13.6c4.5-3.8,6.8-8.2,5.8-14L157.3,0z M134.4,54.7l-7.3,6.4c-0.3-1.8-0.7-3.8-1.3-5.6l14-11.8
		C140,47.9,138.2,51.6,134.4,54.7z M139.9,41l-14.7,12.5c-0.6-1.7-1.3-3.5-2-5.1l22-18.3C145.4,34.3,143.7,37.9,139.9,41z
		 M145.3,27.5c-2.7,2.2-20.2,16.8-23,19.1c-0.8-1.6-1.7-3.1-2.7-4.6l31-25.5C150.8,20.7,149.1,24.4,145.3,27.5z M150.7,13.9
		c-5.1,4.2-28.7,23.7-32.2,26.5c-1-1.4-2.1-2.8-3.3-4.1l41.1-33C156.6,7.1,154.7,10.6,150.7,13.9z"/>
	<path class="st0" d="M0.4,81.7c4.1,4.2,9,4.9,14.7,3.5c3.8,3.7,8.6,4.9,14.2,3.6c3.8,3.7,8.6,4.9,14.2,3.6c4,3.9,9,5,14.8,3.4
		l12.9-2.9c-9.5-8.9-13.6-17.1-15.7-27.6L0,80.4L0.4,81.7z M45.7,91.8l17.7-4.4c1.2,1.6,2.5,3,3.8,4.3l-9.5,2.2
		C53.1,95.2,49,94.5,45.7,91.8z M31.5,88.2l27.7-7.1c0.9,1.6,1.9,3.1,3,4.6l-18.7,4.6C38.8,91.6,34.8,90.9,31.5,88.2z M17.3,84.6
		l38.8-10.2c0.6,1.6,1.4,3.3,2.2,4.9c-3.5,0.9-25.6,6.6-28.9,7.4C24.6,88,20.6,87.3,17.3,84.6z M3.1,81.6l50.9-14
		c0.4,1.7,0.9,3.4,1.4,5.1c-4.3,1.1-33.9,8.9-40.3,10.6C10.2,84.5,6.2,84,3.1,81.6z"/>
	<g>
		<path class="st0" d="M90.3,63.3l0.9-0.3C90.9,63,90.6,63.2,90.3,63.3z"/>
		<polygon class="st0" points="84.7,85.6 79,85.3 68.3,64.4 81,44.7 97.9,45.6 98.9,42.4 79.3,41.4 64.5,64.2 76.9,88.4 83.7,88.8 
					"/>
		<path class="st0" d="M91.8,65.7C91.8,65.7,91.8,65.7,91.8,65.7C91.8,65.7,91.8,65.7,91.8,65.7C91.8,65.6,91.8,65.6,91.8,65.7
			C91.8,65.6,91.8,65.6,91.8,65.7C91.8,65.6,91.8,65.6,91.8,65.7C91.8,65.6,91.8,65.7,91.8,65.7z"/>
		<path class="st0" d="M96.9,48.8l-14.1-0.7L72,64.6l9,17.5l4.7,0.2l3.2-9.8c-3.6-1.5-5.6-5.5-4.4-9.3c1.3-3.9,5.3-6,9.2-4.9
			L96.9,48.8z"/>
		<path class="st0" d="M111.4,66.6l-8.1-15.8c-1.6,3.6-3.4,7-5.6,10.2c0.4,0.5,0.7,1,0.9,1.5c0,0,0,0.1,0,0.1c0,0.1,0.1,0.1,0.1,0.2
			c0.6,1.6,0.7,3.3,0.2,5.1c-0.6,1.9-1.9,3.4-3.7,4.3c-0.2,0.1-0.4,0.2-0.7,0.3c-0.2,0.1-0.4,0.2-0.7,0.2c-0.1,3.4-0.5,6.7-1.1,9.9
			l7.9,0.4L111.4,66.6z"/>
		<path class="st0" d="M105.8,44.3c-0.3,0.9-0.6,1.7-0.9,2.5l10.2,20l-12.7,19.7L92.1,86c-0.3,1.1-0.5,2.1-0.8,3.2l12.9,0.7
			L118.9,67l-12.4-24.2l-0.2,0C106.1,43.3,105.9,43.8,105.8,44.3z"/>
	</g>
	<g>
		<path class="st0" d="M97.4,67.5c-1,3.2-4.4,4.9-7.6,3.9c-3.2-1-4.9-4.4-3.9-7.6c1-3.2,4.4-4.9,7.6-3.9
			C96.7,60.9,98.5,64.3,97.4,67.5z M92.4,63.6c-1.1-0.4-2.3,0.3-2.7,1.4c-0.4,1.1,0.3,2.3,1.4,2.7c1.1,0.4,2.3-0.3,2.7-1.4
			C94.1,65.1,93.5,63.9,92.4,63.6z"/>
		<g>
			<path class="st0" d="M94,58.4c0.8,0.3,1.6,0.7,2.2,1.2c3.7-5.4,6.6-11.3,8.7-18c0.5-1.5,0.9-3.2,1.3-4.8c-1.4-0.6-3-1.2-4.7-1.8
				c-1.7-0.5-3.3-1-4.9-1.3c-0.6,1.5-1.2,3.1-1.7,4.6c-2.1,6.6-3.3,13.1-3.5,19.7C92.4,58.1,93.2,58.2,94,58.4z"/>
			<path class="st0" d="M106.6,35.3c0.2-1.1,0.4-2.1,0.6-3.1c-1.3-0.5-2.7-1.1-4.2-1.6c-1.5-0.5-3-0.9-4.4-1.2
				c-0.4,0.9-0.9,1.9-1.3,2.9c1.5,0.3,3.1,0.8,4.7,1.3C103.7,34.1,105.3,34.7,106.6,35.3z"/>
			<path class="st0" d="M107.6,30.6c0.7-3.9,1-7.1,1.1-8.6c0-0.5-0.2-0.9-0.7-1l-1.7-0.5l-1.7-0.5c-0.4-0.1-0.9,0-1.2,0.4
				c-0.7,1.2-2.4,4.1-4.1,7.6c1.3,0.3,2.7,0.7,4.1,1.2C104.9,29.6,106.3,30.1,107.6,30.6z"/>
			<path class="st0" d="M89.4,72.8c-0.8-0.3-1.6-0.7-2.2-1.2c-3.7,5.4-6.6,11.3-8.7,18c-0.5,1.5-0.9,3.2-1.3,4.8
				c1.4,0.6,3,1.2,4.7,1.8c1.7,0.5,3.3,1,4.9,1.3c0.6-1.5,1.2-3.1,1.7-4.6c2.1-6.6,3.3-13.1,3.5-19.7C91,73.2,90.2,73,89.4,72.8z"/>
			<path class="st0" d="M76.8,95.9C76.5,97,76.3,98,76.1,99c1.3,0.5,2.7,1.1,4.2,1.6c1.5,0.5,3,0.9,4.4,1.2c0.4-0.9,0.9-1.9,1.3-2.9
				c-1.5-0.3-3.1-0.8-4.7-1.3S78.2,96.5,76.8,95.9z"/>
			<path class="st0" d="M75.9,100.6c-0.7,3.9-1,7.1-1.1,8.6c0,0.5,0.2,0.9,0.7,1l1.7,0.5l1.7,0.5c0.4,0.1,0.9,0,1.2-0.4
				c0.7-1.2,2.4-4.1,4.1-7.6c-1.3-0.3-2.7-0.7-4.1-1.2C78.5,101.6,77.1,101.1,75.9,100.6z"/>
		</g>
	</g>
</g>
<g>
</g>
<g>
</g>
<g>
</g>
<g>
</g>
<g>
</g>
<g>
</g>
<g>
</g>
<g>
</g>
<g>
</g>
<g>
</g>
<g>
</g>
<g>
</g>
<g>
</g>
<g>
</g>
<g>
</g>
</svg>
