<?xml version="1.0" encoding="utf-8"?>
<!-- Generator: Adobe Illustrator 24.1.0, SVG Export Plug-In . SVG Version: 6.00 Build 0)  -->
<svg version="1.1" id="Layer_1" xmlns="http://www.w3.org/2000/svg" xmlns:xlink="http://www.w3.org/1999/xlink" x="0px" y="0px"
	 viewBox="0 0 46.2 69.2" style="enable-background:new 0 0 46.2 69.2;" xml:space="preserve">
<style type="text/css">
	.st0{fill:#F7F7F7;}
</style>
<g>
	<path class="st0" d="M13,1.2C2.7,5.1-2.6,16.6,1.2,26.9c2.9,7.8,7.5,10.8,11.9,13.8c4.1,2.7,7.9,5.3,10.2,11.4l0.2,0.5
		c-1.2,1.3-1.7,3.1-1,4.9l3.2,8.8c0.9,2.4,3.6,3.7,6,2.8l11.4-4.2c2.4-0.9,3.7-3.6,2.8-6L42.6,50c-0.7-2-2.7-3.2-4.7-3l-0.1-0.2
		c-2.3-6.2-1-10.6,0.3-15.3c0.8-2.8,1.6-5.7,1.7-8.9c0.4-3.2,0.1-6.4-1.1-9.5C34.9,2.7,23.4-2.6,13,1.2z M22,29.8
		c0.1,0,0.2,0,0.4-0.1c0.4-0.2,0.7-0.6,0.9-1c0.2-0.3,0.3-0.7,0.4-1.1c0.1-0.4,0.2-0.8,0.4-1.1c0.1-0.1,0.1-0.1,0.1-0.1
		c0.1,0,0.2,0.1,0.3,0.2c0.1,0.1,0.3,0.2,0.5,0.3c0.7,0.4,1.2,0.5,2,0.1c0.6-0.3,1.2-0.8,1.8-1.2c0.2,5.3,0.9,14.6,3.7,22.3
		l-3.8,1.4c-3-7.9-8.8-15.7-12.1-19.7c0.6-0.9,1.1-1.7,1.8-2.5c0.1-0.1,0.2-0.2,0.3-0.3c0.2-0.3,0.7-0.9,0.9-0.8
		c0.1,0,0.3,0.2,0.8,1.2c0.1,0.2,0.2,0.4,0.2,0.6C21,28.8,21.3,29.7,22,29.8z M45.5,61.2l-17.9,6.6L27,66.1l17.9-6.6L45.5,61.2z
		 M44.2,57.5l-17.9,6.6l-0.7-1.8l17.9-6.6L44.2,57.5z M42.8,53.8l-17.9,6.6l-0.7-1.8l17.9-6.6L42.8,53.8z M40.8,48.4l0.7,1.8
		l-17.9,6.6l-0.7-1.8L40.8,48.4z M38.8,22.4c-0.1,3.2-0.9,6-1.6,8.7c-1.3,4.5-2.6,9.2-0.4,15.5l-2.9,1.1c-3-8.2-3.6-18.3-3.7-23.1
		c0.8-0.8,1.5-1.6,1.9-2.3l-0.8-0.5c-0.3,0.4-0.7,0.9-1.2,1.5c0-0.9,0-1.5,0-1.5l-1.4,0c0,0,0,1.1,0,2.9c-0.7,0.7-1.5,1.2-2.2,1.6
		c-0.4,0.2-0.6,0.2-1.1-0.1c-0.1-0.1-0.3-0.2-0.4-0.2c-0.3-0.2-1-0.7-1.7,0c-0.4,0.4-0.5,0.9-0.6,1.5c-0.1,0.3-0.2,0.6-0.3,0.9
		c-0.2,0.4-0.4,0.5-0.4,0.6c-0.2-0.2-0.4-0.8-0.5-1.2c-0.1-0.3-0.2-0.5-0.3-0.7c-0.2-0.5-0.7-1.5-1.4-1.7c-0.8-0.2-1.5,0.6-1.9,1.1
		c-0.1,0.1-0.2,0.2-0.2,0.3c-0.7,0.8-1.2,1.6-1.8,2.4c-1-1.3-1.7-2-1.7-2l-1,1c0,0,0.8,0.9,1.9,2.3c-0.2,0.2-0.3,0.5-0.5,0.7
		l0.8,0.5c0.1-0.2,0.2-0.3,0.4-0.5c3.2,4,8.7,11.5,11.6,19l-3.2,1.2c-2.4-6.2-6.5-8.8-10.4-11.5C9.4,37,5,34,2.2,26.6
		C-1.4,16.8,3.6,5.9,13.4,2.2c9.8-3.6,20.7,1.4,24.4,11.2C38.8,16.3,39.2,19.3,38.8,22.4z"/>
</g>
<g>
</g>
<g>
</g>
<g>
</g>
<g>
</g>
<g>
</g>
<g>
</g>
<g>
</g>
<g>
</g>
<g>
</g>
<g>
</g>
<g>
</g>
<g>
</g>
<g>
</g>
<g>
</g>
<g>
</g>
</svg>
