<?xml version="1.0" encoding="utf-8"?>
<!-- Generator: Adobe Illustrator 22.0.0, SVG Export Plug-In . SVG Version: 6.00 Build 0)  -->
<svg version="1.1" id="Layer_1" xmlns="http://www.w3.org/2000/svg" xmlns:xlink="http://www.w3.org/1999/xlink" x="0px" y="0px"
	 viewBox="0 0 77.6 68.3" style="enable-background:new 0 0 77.6 68.3;" xml:space="preserve">
<style type="text/css">
	.st0{fill-rule:evenodd;clip-rule:evenodd;fill:none;stroke:#FFFFFF;stroke-miterlimit:10;}
	.st1{fill:none;}
	.st2{fill:#FFFFFF;}
</style>
<polyline class="st0" points="19.5,25.2 38.7,0.8 57.8,25.2 "/>
<g>
	<rect x="0.4" y="40.5" class="st1" width="76.6" height="25.6"/>
	<path class="st2" d="M24.3,52.9c0,4.7-3.3,8.4-8,8.4s-8-3.7-8-8.4c0-4.6,3.3-8.3,8-8.3S24.3,48.3,24.3,52.9z M23,52.9
		c0-3.9-2.7-7.1-6.6-7.1s-6.6,3.2-6.6,7.1c0,3.9,2.7,7.1,6.6,7.1S23,56.8,23,52.9z"/>
	<path class="st2" d="M38.8,49.8c0,2.9-2,5-5.5,5h-4.5v6.4h-1.2V44.8h5.8C36.8,44.8,38.8,46.8,38.8,49.8z M37.6,49.8
		c0-2.3-1.6-3.8-4-3.8h-4.7v7.6h4.7C36,53.6,37.6,52.1,37.6,49.8z"/>
	<path class="st2" d="M52.7,59.9v1.2H41.9V44.8h10.7V46h-9.5v6.4h8.8v1.2h-8.8v6.4H52.7z"/>
	<path class="st2" d="M68.5,44.8v16.4h-1.1L57.2,46.8v14.3H56V44.8h1.1L67.3,59V44.8H68.5z"/>
</g>
<g>
	<path class="st0" d="M75.9,67.8H1.7c-0.7,0-1.2-0.5-1.2-1.2V26.2C0.5,25.5,1,25,1.7,25h74.2c0.7,0,1.2,0.5,1.2,1.2v40.5
		C77.1,67.3,76.5,67.8,75.9,67.8z"/>
	<line class="st0" x1="0.4" y1="37.3" x2="76.9" y2="37.3"/>
</g>
<g>
</g>
<g>
</g>
<g>
</g>
<g>
</g>
<g>
</g>
<g>
</g>
<g>
</g>
<g>
</g>
<g>
</g>
<g>
</g>
<g>
</g>
<g>
</g>
<g>
</g>
<g>
</g>
<g>
</g>
</svg>
