<?xml version="1.0" encoding="utf-8"?>
<!-- Generator: Adobe Illustrator 22.0.0, SVG Export Plug-In . SVG Version: 6.00 Build 0)  -->
<svg version="1.1" xmlns="http://www.w3.org/2000/svg" xmlns:xlink="http://www.w3.org/1999/xlink" x="0px" y="0px"
	 viewBox="0 0 60.5 63.6" style="enable-background:new 0 0 60.5 63.6;" xml:space="preserve">
<style type="text/css">
	.st0{display:none;}
	.st1{display:inline;stroke:#FFFFFF;stroke-miterlimit:10;}
	.st2{fill-rule:evenodd;clip-rule:evenodd;fill:none;stroke:#FFFFFF;stroke-miterlimit:10;}
	.st3{fill:#FFFFFF;}
</style>
<g id="Layer_2" class="st0">
	<rect x="-18.4" y="-14" class="st1" width="117" height="117"/>
</g>
<g id="Layer_1">
	<g>
		<g>
			<path class="st2" d="M58.7,63.1h-57c-0.7,0-1.2-0.6-1.2-1.2v-57c0-0.7,0.6-1.2,1.2-1.2h57c0.7,0,1.2,0.6,1.2,1.2v57
				C60,62.6,59.4,63.1,58.7,63.1z"/>
			<line class="st2" x1="0.4" y1="14.8" x2="59.8" y2="14.8"/>
			<g>
				<g>
					<path class="st3" d="M32,29.1v18.8h-1.4V32.8c-0.8,1.1-2.1,2.1-3.5,2.3V34c1.7-0.4,3.2-2.7,3.5-4.9H32z"/>
				</g>
			</g>
		</g>
		<line class="st2" x1="31.3" y1="9.5" x2="31.3" y2="0"/>
		<line class="st2" x1="13.9" y1="9.5" x2="13.9" y2="0"/>
		<line class="st2" x1="48.6" y1="9.5" x2="48.6" y2="0"/>
	</g>
	<g>
	</g>
	<g>
	</g>
	<g>
	</g>
	<g>
	</g>
	<g>
	</g>
	<g>
	</g>
	<g>
	</g>
	<g>
	</g>
	<g>
	</g>
	<g>
	</g>
	<g>
	</g>
	<g>
	</g>
	<g>
	</g>
	<g>
	</g>
	<g>
	</g>
</g>
</svg>
