<?xml version="1.0" encoding="utf-8"?>
<!-- Generator: Adobe Illustrator 22.0.0, SVG Export Plug-In . SVG Version: 6.00 Build 0)  -->
<svg version="1.1" id="Layer_1" xmlns="http://www.w3.org/2000/svg" xmlns:xlink="http://www.w3.org/1999/xlink" x="0px" y="0px"
	 viewBox="0 0 26.2 66.3" style="enable-background:new 0 0 26.2 66.3;" xml:space="preserve">
<style type="text/css">
	.st0{fill:none;stroke:#FFFFFF;stroke-miterlimit:10;}
</style>
<g>
	<path class="st0" d="M8,66.2l1.5-24c0-0.4-0.2-0.7-0.5-0.9c-1.7-1-7.3-5-7.3-12.8c0-6-0.7-9.4-1.1-11.1c-0.3-1,0.1-2.1,1-2.6
		c1.8-1,4.2-1.9,5.6,12.1"/>
	<path class="st0" d="M21.1,22.4V9.4c0-1.3,1-2.3,2.3-2.3h0c1.3,0,2.3,1,2.3,2.3l0,13.3c0,2.2-0.3,5.8-0.7,8
		c-0.1,0.7-0.2,1.3-0.3,1.9c-0.4,2.6-1.2,5.2-2.5,7.5c-0.3,0.4-0.5,0.9-0.7,1.6c0,0,0,0,0,0c-0.3,5.4,1.5,24.6,1.5,24.6"/>
	<path class="st0" d="M7.2,27V4.9c0-1.3,1-2.3,2.3-2.3h0c1.3,0,2.3,1,2.3,2.3v16"/>
	<path class="st0" d="M11.8,19.4V2.8c0-1.3,1-2.3,2.3-2.3h0c1.3,0,2.3,1,2.3,2.3v16.6"/>
	<path class="st0" d="M16.4,20.9V4.3c0-1.3,1-2.3,2.3-2.3h0c1.3,0,2.3,1,2.3,2.3v16.6"/>
</g>
<g>
</g>
<g>
</g>
<g>
</g>
<g>
</g>
<g>
</g>
<g>
</g>
<g>
</g>
<g>
</g>
<g>
</g>
<g>
</g>
<g>
</g>
<g>
</g>
<g>
</g>
<g>
</g>
<g>
</g>
</svg>
