<?xml version="1.0" encoding="utf-8"?>
<!-- Generator: Adobe Illustrator 22.0.0, SVG Export Plug-In . SVG Version: 6.00 Build 0)  -->
<svg version="1.1" id="Layer_1" xmlns="http://www.w3.org/2000/svg" xmlns:xlink="http://www.w3.org/1999/xlink" x="0px" y="0px"
	 viewBox="0 0 207 52" style="enable-background:new 0 0 207 52;" xml:space="preserve">
<style type="text/css">
	.st0{fill:none;}
	.st1{fill:#FFFFFF;}
</style>
<g>
	<rect x="0" y="3.4" class="st0" width="207" height="45.7"/>
	<path class="st1" d="M13.3,14.9l2,1c-1.3,2.2-3.7,3.7-6.6,3.7c-4.5,0-7.8-3.6-7.8-8.1c0-4.5,3.3-8.2,7.8-8.2c2.9,0,5.3,1.5,6.6,3.7
		l-2,1c-0.9-1.5-2.6-2.5-4.6-2.5c-3.3,0-5.5,2.6-5.5,6c0,3.3,2.2,6,5.5,6C10.7,17.4,12.3,16.4,13.3,14.9z M8.7,10.1
		c0.8,0,1.4,0.6,1.4,1.4s-0.6,1.4-1.4,1.4c-0.8,0-1.4-0.6-1.4-1.4S8,10.1,8.7,10.1z"/>
	<path class="st1" d="M32.3,11.4c0,4.5-3.2,8.1-7.8,8.1c-4.5,0-7.7-3.7-7.7-8.2c0-4.5,3.2-8.1,7.7-8.1C29,3.3,32.3,6.9,32.3,11.4z
		 M30,11.4c0-3.3-2.2-6-5.5-6c-3.3,0-5.5,2.6-5.5,6c0,3.3,2.2,6,5.5,6C27.8,17.4,30,14.7,30,11.4z M25.9,11.4c0,0.8-0.6,1.4-1.4,1.4
		c-0.8,0-1.4-0.6-1.4-1.4c0-0.8,0.6-1.4,1.4-1.4C25.3,10.1,25.9,10.7,25.9,11.4z"/>
	<path class="st1" d="M50.3,3.3v16.1h-2.2V9.1l-5.6,6.7h-0.2l-5.5-6.7v10.3h-2.2V3.3h0.2l7.7,9l7.6-9H50.3z"/>
	<path class="st1" d="M69,3.3v16.1h-2.2V9.1l-5.6,6.7H61l-5.5-6.7v10.3h-2.2V3.3h0.2l7.7,9l7.6-9H69z"/>
	<path class="st1" d="M74,6h-2.2V3.4H74V6z M81.8,13l2.1,0.9c-0.4,3.7-2.8,5.6-6,5.6c-3.5,0-6.1-2.3-6.1-6.6V8.3H74v4.7
		c0,3.2,1.6,4.5,3.9,4.5C80.1,17.4,81.7,16.2,81.8,13z M83.9,3.4v7.9l-2.2-0.9V3.4H83.9z"/>
	<path class="st1" d="M98.9,3.4v16.1h-0.2L89,8.9v10.5h-2.2V3.3H87l9.7,10.8V3.4H98.9z"/>
	<path class="st1" d="M104.1,3.4V6h-2.2V3.4H104.1z M104.1,8.3v11.2h-2.2V8.3H104.1z"/>
	<path class="st1" d="M117.8,3.4v2.2h-11.6V3.4H117.8z M110.9,8.7h2.2v10.7h-2.2V8.7z"/>
	<path class="st1" d="M132,3.4l-5.4,10.1h-2.2l-5.4-10.1h2.5l4,7.6l4-7.6H132z M124.4,16.1h2.2v3.3h-2.2V16.1z"/>
	<path class="st1" d="M13,42.8c0,2.6-2.4,4.3-5.7,4.3c-2.4,0-5.3-1-6.2-3.6L2.3,43c0.5,1.8,2.4,2.8,5,2.8c1.8,0,4.5-0.7,4.5-3.1
		c0-2.1-1.9-2.7-4.9-3.4c-2.6-0.6-5.5-1.4-5.5-4.3c0-2.9,2.4-4.4,5.2-4.4c3,0,5.1,1.3,5.6,3.5l-1.1,0.4c-0.3-1.7-2-2.7-4.5-2.7
		c-2.8,0-4,1.4-4,3.2c0,1.9,1.7,2.5,4.6,3.2C11.8,39.2,13,40.4,13,42.8z"/>
	<path class="st1" d="M28.8,42.7l1.2,0.6c-1.3,2.2-3.7,3.7-6.6,3.7c-4.5,0-7.8-3.6-7.8-8.2c0-4.5,3.2-8.1,7.8-8.1
		c2.9,0,5.3,1.5,6.6,3.7L28.8,35c-1.1-1.9-3.1-3.1-5.4-3.1c-3.8,0-6.4,3.1-6.4,6.9c0,3.8,2.7,6.9,6.4,6.9
		C25.7,45.8,27.6,44.5,28.8,42.7z"/>
	<path class="st1" d="M33.9,30.9v16h-1.2v-16H33.9z"/>
	<path class="st1" d="M47.9,45.7v1.2H37.3v-16h10.5V32h-9.3v6.2h8.6v1.2h-8.6v6.2H47.9z"/>
	<path class="st1" d="M63.3,30.9v16h-1.1l-9.9-14v14h-1.2v-16h1.1l9.9,13.9V30.9H63.3z"/>
	<path class="st1" d="M79.7,42.7l1.2,0.6c-1.3,2.2-3.7,3.7-6.6,3.7c-4.5,0-7.8-3.6-7.8-8.2c0-4.5,3.2-8.1,7.8-8.1
		c2.9,0,5.3,1.5,6.6,3.7L79.7,35c-1.1-1.9-3.1-3.1-5.4-3.1c-3.8,0-6.4,3.1-6.4,6.9c0,3.8,2.7,6.9,6.4,6.9
		C76.6,45.8,78.6,44.5,79.7,42.7z"/>
	<path class="st1" d="M94.2,45.7v1.2H83.6v-16h10.5V32h-9.3v6.2h8.6v1.2h-8.6v6.2H94.2z"/>
	<path class="st1" d="M119.5,30.9v16h-1.2V33.1l-6.2,9.7h-0.8l-6.2-9.7v13.7h-1.2v-16h1.1l6.7,10.6l6.7-10.6H119.5z"/>
	<path class="st1" d="M134.8,30.9v9.4c0,4.7-2.6,6.8-5.9,6.8s-6-2-6-6.8v-9.3h1.2v9.5c0,3.8,2.2,5.4,4.8,5.4s4.7-1.7,4.7-5.4v-9.5
		H134.8z"/>
	<path class="st1" d="M149.5,42.8c0,2.6-2.4,4.3-5.7,4.3c-2.4,0-5.3-1-6.2-3.6l1.1-0.4c0.5,1.8,2.4,2.8,5,2.8c1.8,0,4.5-0.7,4.5-3.1
		c0-2.1-1.9-2.7-4.9-3.4c-2.6-0.6-5.5-1.4-5.5-4.3c0-2.9,2.4-4.4,5.2-4.4c3,0,5.1,1.3,5.6,3.5l-1.1,0.4c-0.3-1.7-2-2.7-4.5-2.7
		c-2.8,0-4,1.4-4,3.2c0,1.9,1.7,2.5,4.6,3.2C148.2,39.2,149.5,40.4,149.5,42.8z"/>
	<path class="st1" d="M163.3,45.7v1.2h-10.6v-16h10.5V32h-9.3v6.2h8.6v1.2h-8.6v6.2H163.3z"/>
	<path class="st1" d="M178.2,30.9v9.4c0,4.7-2.6,6.8-5.9,6.8s-6-2-6-6.8v-9.3h1.2v9.5c0,3.8,2.2,5.4,4.8,5.4s4.7-1.7,4.7-5.4v-9.5
		H178.2z"/>
	<path class="st1" d="M197.3,30.9v16h-1.2V33.1l-6.2,9.7H189l-6.2-9.7v13.7h-1.2v-16h1.1l6.7,10.6l6.7-10.6H197.3z"/>
</g>
<g>
</g>
<g>
</g>
<g>
</g>
<g>
</g>
<g>
</g>
<g>
</g>
<g>
</g>
<g>
</g>
<g>
</g>
<g>
</g>
<g>
</g>
<g>
</g>
<g>
</g>
<g>
</g>
<g>
</g>
</svg>
