<?xml version="1.0" encoding="utf-8"?>
<!-- Generator: Adobe Illustrator 24.1.0, SVG Export Plug-In . SVG Version: 6.00 Build 0)  -->
<svg version="1.1" id="Layer_1" xmlns="http://www.w3.org/2000/svg" xmlns:xlink="http://www.w3.org/1999/xlink" x="0px" y="0px"
	 viewBox="0 0 60.9 63.6" style="enable-background:new 0 0 60.9 63.6;" xml:space="preserve">
<style type="text/css">
	.st0{fill:none;stroke:#F7F7F7;stroke-miterlimit:10;}
</style>
<g>
	<g>
		<g>
			<path class="st0" d="M37.1,4.8c-3.8-5.6-12.3-4.7-16.4-3C16.6,3.6,0.8,13.5,0.5,16.5c-0.3,3.1,3.3,6.2,3.9,6.6l3.3-2.3l16.6-4.1
				C23.9,18,16.8,24.3,14.2,27c-2.6,2.7-6,0-4.6,3.5c2.3,5.8,21.6-9.8,24.6-12.7C37.2,14.8,40.8,10.4,37.1,4.8z M3.5,17.4
				c-0.7-0.1-0.8-0.8-0.5-1.3c0.4-0.6,2.3-1.9,2.4-0.4C5.6,16.4,4.3,17.5,3.5,17.4z M22.2,9.1c-1.3,1-3.1,1.6-4.6,1.9
				c-0.7,0.1-2.4,0.1-2.8-0.6c-0.8-1.6,2.3-3.2,3.3-3.6c1-0.4,2.2-1,3.3-0.8C23,6.3,23.5,8.1,22.2,9.1z"/>
		</g>
		<g>
			<path class="st0" d="M38.3,5l2-3.2l2.6,2.3l-2.2,3c0,0,2.3,2.3,2.5,4.4L45,8.9c0,0,1.1,3.4,0.2,4.4c-0.7,0.8-1.7,1.8-1.7,1.8
				l-0.3,1.9l3-0.7l0.3,2.7c0,0-3.2,2-4.4,2.2l-1.5,4.3l1.6-0.2l-1.2,2.5l-1.7,0.3L39,29.8l1.7,0.1l0.3,2l-2.6,1.4l0.1,3.3l3.7-1.5
				c0,0,2.6,2.7,3.3,5.1l1.6-0.2l-0.6-2.5l3-0.5l0.4,3l1.4-0.2l0.2-2.9l3.5,0.9L54.7,41l2.3,0.6l0.2-2.8c0,0,3.1,0.2,3.2,0.4
				c0,0.2-0.4,5.8-0.4,5.8s-5.9-0.3-5.9,0c0,0-2,7-4.4,10c0,0,1.8-5.4,2.2-9.5l-2.1,0c0,0-2.2,6.7-5,8.4c0,0,1.6-4.4,2.2-6.6
				c0,0-2,0-2,0.2c0,0.2-3.1,5.4-4.8,6.7c0,0,2.5,7.7,12.5,9c0,0-8,0.6-15.1-7.8c-3.8-4.5-5.6-8.5-5-11.7c0.4-2.1,1.4-3.3,1.4-3.3
				l0.8-5.1l-1.8,1.7l1-4.5l2.4-1.9l-0.2-1.1L33.8,31l1.6-4.1l1.9-0.9l0.5-1.5l-1.7,0.4l1.7-2.9l1.4-0.2c0,0,2.1-6.9,0.3-9.8L38.3,5
				z"/>
		</g>
	</g>
</g>
<g>
</g>
<g>
</g>
<g>
</g>
<g>
</g>
<g>
</g>
<g>
</g>
<g>
</g>
<g>
</g>
<g>
</g>
<g>
</g>
<g>
</g>
<g>
</g>
<g>
</g>
<g>
</g>
<g>
</g>
</svg>
